<svg width="1920" height="1080" viewBox="0 0 1920 1080" fill="none" xmlns="http://www.w3.org/2000/svg">
<g clip-path="url(#clip0_1699_2261)">
<rect width="1920" height="1080" fill="#E5DAFC"/>
<mask id="mask0_1699_2261" style="mask-type:luminance" maskUnits="userSpaceOnUse" x="-42" y="9" width="1001" height="1062">
<path d="M958.055 9.07886H-41.9976V1070.92H958.055V9.07886Z" fill="white"/>
</mask>
<g mask="url(#mask0_1699_2261)">
<path d="M-4.5957 62.171L8.00496 48.813L20.6056 62.1922L8.00496 75.5714L-4.5957 62.171Z" fill="#8E74D9"/>
<path d="M-12.6963 168.355L8.0048 146.375L28.7059 168.355L8.0048 190.335L-12.6963 168.355Z" fill="#8C66D2"/>
<path d="M-20.7964 274.54L8.00513 243.958L36.8166 274.54L8.01513 305.121L-20.7964 274.54Z" fill="#B289F3"/>
<path d="M-28.897 380.724L8.00496 341.542L44.9069 380.724L8.00496 419.906L-28.897 380.724Z" fill="#A57FDC"/>
<path d="M-36.9976 486.908L8.00481 439.125L53.0072 486.908L8.00481 534.691L-36.9976 486.908Z" fill="#A27CF1"/>
<path d="M-36.9976 593.092L8.00481 545.309L53.0072 593.092L8.00481 640.875L-36.9976 593.092Z" fill="#A582E6"/>
<path d="M-28.897 699.276L8.00496 660.094L44.9069 699.276L8.00496 738.458L-28.897 699.276Z" fill="#754FBF"/>
<path d="M-20.7964 805.461L8.00513 774.88L36.8166 805.461L8.01513 836.042L-20.7964 805.461Z" fill="#AB7ADC"/>
<path d="M-12.6963 911.645L8.0048 889.665L28.7059 911.645L8.0048 933.625L-12.6963 911.645Z" fill="#935FCF"/>
<path d="M-4.5957 1017.83L8.00496 1004.47L20.6056 1017.85L8.00496 1031.23L-4.5957 1017.83Z" fill="#925FC7"/>
<path d="M95.4097 62.171L108.01 48.813L120.611 62.1922L108.01 75.5714L95.4097 62.171Z" fill="#BC9AFD"/>
<path d="M87.3091 168.355L108.01 146.375L128.711 168.355L108.01 190.335L87.3091 168.355Z" fill="#916EDB"/>
<path d="M79.209 274.54L108.011 243.958L136.812 274.54L108.011 305.121L79.209 274.54Z" fill="#B296F9"/>
<path d="M71.1084 380.724L108.01 341.542L144.912 380.724L108.01 419.906L71.1084 380.724Z" fill="#9460D7"/>
<path d="M63.0078 486.908L108.01 439.125L153.013 486.908L108.01 534.691L63.0078 486.908Z" fill="#AD7FE3"/>
<path d="M63.0078 593.092L108.01 545.309L153.013 593.092L108.01 640.875L63.0078 593.092Z" fill="#C092FE"/>
<path d="M71.1084 699.276L108.01 660.094L144.912 699.276L108.01 738.458L71.1084 699.276Z" fill="#AE82F2"/>
<path d="M79.209 805.461L108.011 774.88L136.812 805.461L108.011 836.042L79.209 805.461Z" fill="#8256AD"/>
<path d="M87.3091 911.645L108.01 889.665L128.711 911.645L108.01 933.625L87.3091 911.645Z" fill="#9F6CD9"/>
<path d="M95.4097 1017.83L108.01 1004.45L120.611 1017.83L108.01 1031.21L95.4097 1017.83Z" fill="#B499FB"/>
<path d="M195.415 62.171L208.016 48.813L220.616 62.1922L208.016 75.5714L195.415 62.171Z" fill="#9D78DF"/>
<path d="M187.314 168.355L208.016 146.375L228.717 168.355L208.016 190.335L187.314 168.355Z" fill="#8763C1"/>
<path d="M179.214 274.54L208.015 243.958L236.817 274.54L208.015 305.121L179.214 274.54Z" fill="#A679D7"/>
<path d="M171.114 380.724L208.016 341.542L244.918 380.724L208.016 419.906L171.114 380.724Z" fill="#8959BE"/>
<path d="M163.013 486.908L208.016 439.125L253.018 486.908L208.016 534.691L163.013 486.908Z" fill="#A176DE"/>
<path d="M163.013 593.092L208.016 545.309L253.018 593.092L208.016 640.875L163.013 593.092Z" fill="#9058BB"/>
<path d="M171.114 699.276L208.016 660.094L244.918 699.276L208.016 738.458L171.114 699.276Z" fill="#C999F5"/>
<path d="M179.214 805.461L208.015 774.88L236.817 805.461L208.015 836.042L179.214 805.461Z" fill="#BC86EA"/>
<path d="M187.314 911.645L208.016 889.665L228.717 911.645L208.016 933.625L187.314 911.645Z" fill="#986FDA"/>
<path d="M195.415 1017.83L208.016 1004.45L220.616 1017.83L208.016 1031.21L195.415 1017.83Z" fill="#CA98FF"/>
<path d="M295.42 62.171L308.021 48.813L320.621 62.1922L308.021 75.5714L295.42 62.171Z" fill="#7F5CCF"/>
<path d="M287.32 168.355L308.021 146.375L328.722 168.355L308.021 190.335L287.32 168.355Z" fill="#8B6BCC"/>
<path d="M279.219 274.54L308.021 243.958L336.822 274.54L308.021 305.121L279.219 274.54Z" fill="#8F73DC"/>
<path d="M271.119 380.724L308.021 341.542L344.923 380.724L308.021 419.906L271.119 380.724Z" fill="#A58BEF"/>
<path d="M263.019 486.908L308.021 439.125L353.023 486.908L308.021 534.691L263.019 486.908Z" fill="#8369C6"/>
<path d="M263.019 593.092L308.021 545.309L353.023 593.092L308.021 640.875L263.019 593.092Z" fill="#B593F3"/>
<path d="M271.119 699.276L308.021 660.094L344.923 699.276L308.021 738.458L271.119 699.276Z" fill="#8B60BC"/>
<path d="M279.219 805.461L308.021 774.88L336.822 805.461L308.021 836.042L279.219 805.461Z" fill="#906FD2"/>
<path d="M287.32 911.645L308.021 889.665L328.722 911.645L308.021 933.625L287.32 911.645Z" fill="#9A74D8"/>
<path d="M295.42 1017.83L308.021 1004.45L320.621 1017.83L308.021 1031.21L295.42 1017.83Z" fill="#C397F8"/>
<path d="M395.425 62.171L408.026 48.813L420.627 62.1922L408.026 75.5714L395.425 62.171Z" fill="#875DBF"/>
<path d="M387.325 168.355L408.026 146.375L428.727 168.355L408.026 190.335L387.325 168.355Z" fill="#845EB6"/>
<path d="M379.225 274.54L408.026 243.958L436.828 274.54L408.026 305.121L379.225 274.54Z" fill="#7E4EBB"/>
<path d="M371.124 380.724L408.026 341.542L444.928 380.724L408.026 419.906L371.124 380.724Z" fill="#C492FB"/>
<path d="M363.023 486.908L408.026 439.125L453.028 486.908L408.026 534.691L363.023 486.908Z" fill="#AC97F8"/>
<path d="M363.023 593.092L408.026 545.309L453.028 593.092L408.026 640.875L363.023 593.092Z" fill="#7459B2"/>
<path d="M371.124 699.276L408.026 660.094L444.928 699.276L408.026 738.458L371.124 699.276Z" fill="#8F6EC9"/>
<path d="M379.225 805.461L408.026 774.88L436.828 805.461L408.026 836.042L379.225 805.461Z" fill="#C9A2FF"/>
<path d="M387.325 911.645L408.026 889.665L428.727 911.645L408.026 933.625L387.325 911.645Z" fill="#946CD1"/>
<path d="M395.425 1017.83L408.026 1004.45L420.627 1017.83L408.026 1031.21L395.425 1017.83Z" fill="#9A6AD3"/>
<path d="M495.431 62.171L508.031 48.813L520.632 62.1922L508.031 75.5714L495.431 62.171Z" fill="#8A56BA"/>
<path d="M487.33 168.355L508.031 146.375L528.732 168.355L508.031 190.335L487.33 168.355Z" fill="#A57FD4"/>
<path d="M479.23 274.54L508.031 243.958L536.833 274.54L508.031 305.121L479.23 274.54Z" fill="#BB96E9"/>
<path d="M471.129 380.724L508.031 341.542L544.933 380.724L508.031 419.906L471.129 380.724Z" fill="#C08FF0"/>
<path d="M463.029 486.908L508.031 439.125L553.034 486.908L508.031 534.691L463.029 486.908Z" fill="#7F57C4"/>
<path d="M463.029 593.092L508.031 545.309L553.034 593.092L508.031 640.875L463.029 593.092Z" fill="#835DB2"/>
<path d="M471.129 699.276L508.031 660.094L544.933 699.276L508.031 738.458L471.129 699.276Z" fill="#7B4CC0"/>
<path d="M479.23 805.461L508.031 774.88L536.833 805.461L508.031 836.042L479.23 805.461Z" fill="#D196FF"/>
<path d="M487.33 911.645L508.031 889.665L528.732 911.645L508.031 933.625L487.33 911.645Z" fill="#8E6AD6"/>
<path d="M495.431 1017.83L508.031 1004.45L520.632 1017.83L508.031 1031.21L495.431 1017.83Z" fill="#A67CE1"/>
<path d="M595.436 62.171L608.037 48.813L620.637 62.1922L608.037 75.5714L595.436 62.171Z" fill="#C796FF"/>
<path d="M587.335 168.355L608.037 146.375L628.738 168.355L608.037 190.335L587.335 168.355Z" fill="#A980E8"/>
<path d="M579.235 274.54L608.036 243.958L636.838 274.54L608.036 305.121L579.235 274.54Z" fill="#C8A2FC"/>
<path d="M571.135 380.724L608.037 341.542L644.939 380.724L608.037 419.906L571.135 380.724Z" fill="#C69DFB"/>
<path d="M563.034 486.908L608.037 439.125L653.039 486.908L608.037 534.691L563.034 486.908Z" fill="#BF96FA"/>
<path d="M563.034 593.092L608.037 545.309L653.039 593.092L608.037 640.875L563.034 593.092Z" fill="#BE8FF6"/>
<path d="M571.135 699.276L608.037 660.094L644.939 699.276L608.037 738.458L571.135 699.276Z" fill="#865BCA"/>
<path d="M579.235 805.461L608.036 774.88L636.838 805.461L608.036 836.042L579.235 805.461Z" fill="#C299FF"/>
<path d="M587.335 911.645L608.037 889.665L628.738 911.645L608.037 933.625L587.335 911.645Z" fill="#9055CB"/>
<path d="M595.436 1017.83L608.037 1004.45L620.637 1017.83L608.037 1031.21L595.436 1017.83Z" fill="#C89EF6"/>
<path d="M695.441 62.171L708.042 48.813L720.643 62.1922L708.042 75.5714L695.441 62.171Z" fill="#A070D2"/>
<path d="M687.341 168.355L708.042 146.375L728.743 168.355L708.042 190.335L687.341 168.355Z" fill="#8A6EC4"/>
<path d="M679.24 274.54L708.042 243.958L736.843 274.54L708.042 305.121L679.24 274.54Z" fill="#956CCB"/>
<path d="M671.14 380.724L708.042 341.542L744.944 380.724L708.042 419.906L671.14 380.724Z" fill="#C38BF2"/>
<path d="M663.04 486.908L708.042 439.125L753.044 486.908L708.042 534.691L663.04 486.908Z" fill="#A98AE2"/>
<path d="M663.04 593.092L708.042 545.309L753.044 593.092L708.042 640.875L663.04 593.092Z" fill="#7A5AC8"/>
<path d="M671.14 699.276L708.042 660.094L744.944 699.276L708.042 738.458L671.14 699.276Z" fill="#875AC3"/>
<path d="M679.24 805.461L708.042 774.88L736.843 805.461L708.042 836.042L679.24 805.461Z" fill="#A181DB"/>
<path d="M687.341 911.645L708.042 889.665L728.743 911.645L708.042 933.625L687.341 911.645Z" fill="#8D6FCB"/>
<path d="M695.441 1017.83L708.042 1004.45L720.643 1017.83L708.042 1031.21L695.441 1017.83Z" fill="#8158BE"/>
<path d="M795.446 62.171L808.047 48.813L820.648 62.1922L808.047 75.5714L795.446 62.171Z" fill="#967BE0"/>
<path d="M787.346 168.355L808.047 146.375L828.748 168.355L808.047 190.335L787.346 168.355Z" fill="#9C71E2"/>
<path d="M779.246 274.54L808.047 243.958L836.849 274.54L808.047 305.121L779.246 274.54Z" fill="#8F64CB"/>
<path d="M771.145 380.724L808.047 341.542L844.949 380.724L808.047 419.906L771.145 380.724Z" fill="#8058C0"/>
<path d="M763.045 486.908L808.047 439.125L853.05 486.908L808.047 534.691L763.045 486.908Z" fill="#9176D3"/>
<path d="M763.045 593.092L808.047 545.309L853.05 593.092L808.047 640.875L763.045 593.092Z" fill="#9373CE"/>
<path d="M771.145 699.276L808.047 660.094L844.949 699.276L808.047 738.458L771.145 699.276Z" fill="#885BCC"/>
<path d="M779.246 805.461L808.047 774.88L836.849 805.461L808.047 836.042L779.246 805.461Z" fill="#B690F4"/>
<path d="M787.346 911.645L808.047 889.665L828.748 911.645L808.047 933.625L787.346 911.645Z" fill="#BF95FF"/>
<path d="M795.446 1017.83L808.047 1004.45L820.648 1017.83L808.047 1031.21L795.446 1017.83Z" fill="#AA8DE6"/>
<path d="M895.452 62.171L908.052 48.813L920.653 62.1922L908.052 75.5714L895.452 62.171Z" fill="#824BBB"/>
<path d="M887.351 168.355L908.052 146.375L928.753 168.355L908.052 190.335L887.351 168.355Z" fill="#8F65D6"/>
<path d="M879.251 274.54L908.052 243.958L936.854 274.54L908.052 305.121L879.251 274.54Z" fill="#C2A7F9"/>
<path d="M871.15 380.724L908.052 341.542L944.954 380.724L908.052 419.906L871.15 380.724Z" fill="#855CB5"/>
<path d="M863.05 486.908L908.052 439.125L953.055 486.908L908.052 534.691L863.05 486.908Z" fill="#7A5CBC"/>
<path d="M863.05 593.092L908.052 545.309L953.055 593.092L908.052 640.875L863.05 593.092Z" fill="#9A73D9"/>
<path d="M871.15 699.276L908.052 660.094L944.954 699.276L908.052 738.458L871.15 699.276Z" fill="#A87DE5"/>
<path d="M879.251 805.461L908.052 774.88L936.854 805.461L908.052 836.042L879.251 805.461Z" fill="#844BBF"/>
<path d="M887.351 911.645L908.052 889.665L928.753 911.645L908.052 933.625L887.351 911.645Z" fill="#A472E9"/>
<path d="M895.452 1017.83L908.052 1004.45L920.653 1017.83L908.052 1031.21L895.452 1017.83Z" fill="#B893EF"/>
<path d="M-87 540L-41.9976 492.217L3.00474 540L-41.9976 587.783L-87 540Z" fill="#9C72DF"/>
<path d="M49.457 9.07887L58.0075 -0.0317383L66.5579 9.04701L58.0075 18.1258L49.457 9.07887Z" fill="#C1A0FD"/>
<path d="M41.3569 115.263L58.0078 97.5835L74.6587 115.263L58.0078 132.943L41.3569 115.263Z" fill="#C89BFF"/>
<path d="M33.2563 221.447L58.0077 195.167L82.759 221.447L58.0077 247.728L33.2563 221.447Z" fill="#9C82DB"/>
<path d="M25.1558 327.632L58.0075 292.75L90.8192 327.632L57.9675 362.513L25.1558 327.632Z" fill="#C499F7"/>
<path d="M17.0557 433.816L58.0578 390.333L99.01 433.816L58.0578 477.298L17.0557 433.816Z" fill="#9273CF"/>
<path d="M13.0054 540L58.0077 492.217L103.01 540L58.0077 587.783L13.0054 540Z" fill="#9767D9"/>
<path d="M17.0557 646.184L58.0578 602.649L99.01 646.184L58.0578 689.667L17.0557 646.184Z" fill="#B39AF9"/>
<path d="M25.1558 752.369L58.0075 717.487L90.8192 752.369L57.9675 787.25L25.1558 752.369Z" fill="#AC84EE"/>
<path d="M33.2563 858.553L58.0077 832.272L82.759 858.553L58.0077 884.833L33.2563 858.553Z" fill="#967BCF"/>
<path d="M41.3569 964.737L58.0078 947.058L74.6587 964.737L58.0078 982.417L41.3569 964.737Z" fill="#9466D3"/>
<path d="M49.457 1070.92L58.0075 1061.84L66.5579 1070.92L58.0075 1080L49.457 1070.92Z" fill="#8263C7"/>
<path d="M149.462 9.07887L158.013 -0.0317383L166.563 9.04701L158.013 18.1258L149.462 9.07887Z" fill="#7C65BB"/>
<path d="M141.362 115.263L158.013 97.5835L174.664 115.263L158.013 132.943L141.362 115.263Z" fill="#C5A7FF"/>
<path d="M133.262 221.447L158.013 195.167L182.764 221.447L158.013 247.728L133.262 221.447Z" fill="#8865CF"/>
<path d="M125.161 327.632L158.013 292.75L190.825 327.632L157.973 362.513L125.161 327.632Z" fill="#9B7BD0"/>
<path d="M117.061 433.816L158.013 390.333L198.965 433.816L158.013 477.298L117.061 433.816Z" fill="#AA8AE6"/>
<path d="M113.011 540L158.013 492.217L203.015 540L158.013 587.783L113.011 540Z" fill="#A68CEF"/>
<path d="M117.061 646.184L158.013 602.649L198.965 646.184L158.013 689.667L117.061 646.184Z" fill="#AA88EA"/>
<path d="M125.161 752.369L158.013 717.487L190.825 752.369L157.973 787.25L125.161 752.369Z" fill="#844BAD"/>
<path d="M133.262 858.553L158.013 832.272L182.764 858.553L158.013 884.833L133.262 858.553Z" fill="#8C5FBD"/>
<path d="M141.362 964.737L158.013 947.058L174.664 964.737L158.013 982.417L141.362 964.737Z" fill="#AD81EB"/>
<path d="M149.462 1070.92L158.013 1061.84L166.563 1070.92L158.013 1080L149.462 1070.92Z" fill="#875FC1"/>
<path d="M249.468 9.07887L258.018 -0.0317383L266.569 9.04701L258.018 18.1258L249.468 9.07887Z" fill="#B988E8"/>
<path d="M241.367 115.263L258.018 97.5835L274.669 115.263L258.018 132.943L241.367 115.263Z" fill="#9A5FC9"/>
<path d="M233.267 221.447L258.018 195.167L282.769 221.447L258.018 247.728L233.267 221.447Z" fill="#9C7FDF"/>
<path d="M225.167 327.632L258.018 292.75L290.83 327.632L257.978 362.513L225.167 327.632Z" fill="#CA98FA"/>
<path d="M217.066 433.816L258.018 390.333L298.97 433.816L258.018 477.298L217.066 433.816Z" fill="#C19AFF"/>
<path d="M213.016 540L258.018 492.217L303.02 540L258.018 587.783L213.016 540Z" fill="#B296F8"/>
<path d="M217.066 646.184L258.018 602.649L298.97 646.184L258.018 689.667L217.066 646.184Z" fill="#9663D3"/>
<path d="M225.167 752.369L258.018 717.487L290.83 752.369L257.978 787.25L225.167 752.369Z" fill="#B289F8"/>
<path d="M233.267 858.553L258.018 832.272L282.769 858.553L258.018 884.833L233.267 858.553Z" fill="#916FD7"/>
<path d="M241.367 964.737L258.018 947.058L274.669 964.737L258.018 982.417L241.367 964.737Z" fill="#8865CE"/>
<path d="M249.468 1070.92L258.018 1061.84L266.569 1070.92L258.018 1080L249.468 1070.92Z" fill="#AF8BEB"/>
<path d="M349.473 9.07887L358.024 -0.0317383L366.574 9.04701L358.024 18.1258L349.473 9.07887Z" fill="#B192EA"/>
<path d="M341.373 115.263L358.023 97.5835L374.674 115.263L358.023 132.943L341.373 115.263Z" fill="#9B71D2"/>
<path d="M333.272 221.447L358.023 195.167L382.775 221.447L358.023 247.728L333.272 221.447Z" fill="#B08EEF"/>
<path d="M325.172 327.632L358.024 292.75L390.835 327.632L357.984 362.513L325.172 327.632Z" fill="#B883F2"/>
<path d="M317.071 433.816L358.023 390.333L398.976 433.816L358.023 477.298L317.071 433.816Z" fill="#B891FA"/>
<path d="M313.021 540L358.023 492.217L403.026 540L358.023 587.783L313.021 540Z" fill="#8250BE"/>
<path d="M317.071 646.184L358.023 602.649L398.976 646.184L358.023 689.667L317.071 646.184Z" fill="#9C6FDC"/>
<path d="M325.172 752.369L358.024 717.487L390.835 752.369L357.984 787.25L325.172 752.369Z" fill="#C595F8"/>
<path d="M333.272 858.553L358.023 832.272L382.775 858.553L358.023 884.833L333.272 858.553Z" fill="#BF97FF"/>
<path d="M341.373 964.737L358.023 947.058L374.674 964.737L358.023 982.417L341.373 964.737Z" fill="#A87BDF"/>
<path d="M349.473 1070.92L358.024 1061.84L366.574 1070.92L358.024 1080L349.473 1070.92Z" fill="#A67CEC"/>
<path d="M449.478 9.07887L458.028 -0.0317383L466.579 9.04701L458.028 18.1258L449.478 9.07887Z" fill="#9477DE"/>
<path d="M441.378 115.263L458.029 97.5835L474.68 115.263L458.029 132.943L441.378 115.263Z" fill="#7F5EC1"/>
<path d="M433.277 221.447L458.029 195.167L482.78 221.447L458.029 247.728L433.277 221.447Z" fill="#AD8CE8"/>
<path d="M425.177 327.632L458.028 292.75L490.84 327.632L457.988 362.513L425.177 327.632Z" fill="#A678DB"/>
<path d="M417.077 433.816L458.029 390.333L498.981 433.816L458.029 477.298L417.077 433.816Z" fill="#C699FF"/>
<path d="M413.026 540L458.029 492.217L503.031 540L458.029 587.783L413.026 540Z" fill="#8D69D0"/>
<path d="M417.077 646.184L458.029 602.649L498.981 646.184L458.029 689.667L417.077 646.184Z" fill="#BBA2FC"/>
<path d="M425.177 752.369L458.028 717.487L490.84 752.369L457.988 787.25L425.177 752.369Z" fill="#9172C3"/>
<path d="M433.277 858.553L458.029 832.272L482.78 858.553L458.029 884.833L433.277 858.553Z" fill="#9F77CF"/>
<path d="M441.378 964.737L458.029 947.058L474.68 964.737L458.029 982.417L441.378 964.737Z" fill="#8D5FD1"/>
<path d="M449.478 1070.92L458.028 1061.84L466.579 1070.92L458.028 1080L449.478 1070.92Z" fill="#C1A6FF"/>
<path d="M549.483 9.07887L558.034 -0.0317383L566.584 9.04701L558.034 18.1258L549.483 9.07887Z" fill="#8D67C5"/>
<path d="M541.383 115.263L558.034 97.5835L574.685 115.263L558.034 132.943L541.383 115.263Z" fill="#9880DF"/>
<path d="M533.283 221.447L558.034 195.167L582.785 221.447L558.034 247.728L533.283 221.447Z" fill="#8B65CE"/>
<path d="M525.182 327.632L558.034 292.75L590.846 327.632L557.994 362.513L525.182 327.632Z" fill="#8168C0"/>
<path d="M517.082 433.816L558.084 390.333L599.036 433.816L558.084 477.298L517.082 433.816Z" fill="#A67BE7"/>
<path d="M513.032 540L558.034 492.217L603.036 540L558.034 587.783L513.032 540Z" fill="#976AD5"/>
<path d="M517.082 646.184L558.084 602.649L599.036 646.184L558.084 689.667L517.082 646.184Z" fill="#8F58C5"/>
<path d="M525.182 752.369L558.034 717.487L590.846 752.369L557.994 787.25L525.182 752.369Z" fill="#A285E3"/>
<path d="M533.283 858.553L558.034 832.272L582.785 858.553L558.034 884.833L533.283 858.553Z" fill="#9D72D2"/>
<path d="M541.383 964.737L558.034 947.058L574.685 964.737L558.034 982.417L541.383 964.737Z" fill="#9C6AD6"/>
<path d="M549.483 1070.92L558.034 1061.84L566.584 1070.92L558.034 1080L549.483 1070.92Z" fill="#7B4AAC"/>
<path d="M649.489 9.07887L658.039 -0.0317383L666.59 9.04701L658.039 18.1258L649.489 9.07887Z" fill="#9667C6"/>
<path d="M641.388 115.263L658.039 97.5835L674.69 115.263L658.039 132.943L641.388 115.263Z" fill="#CDA9FF"/>
<path d="M633.288 221.447L658.039 195.167L682.791 221.447L658.039 247.728L633.288 221.447Z" fill="#B19AFD"/>
<path d="M625.188 327.632L658.039 292.75L690.851 327.632L657.999 362.513L625.188 327.632Z" fill="#A47DE6"/>
<path d="M617.087 433.816L658.089 390.333L699.041 433.816L658.089 477.298L617.087 433.816Z" fill="#895ED0"/>
<path d="M613.037 540L658.039 492.217L703.041 540L658.039 587.783L613.037 540Z" fill="#A780E6"/>
<path d="M617.087 646.184L658.089 602.649L699.041 646.184L658.089 689.667L617.087 646.184Z" fill="#8E67CF"/>
<path d="M625.188 752.369L658.039 717.487L690.851 752.369L657.999 787.25L625.188 752.369Z" fill="#7C4FB5"/>
<path d="M633.288 858.553L658.039 832.272L682.791 858.553L658.039 884.833L633.288 858.553Z" fill="#B59BF5"/>
<path d="M641.388 964.737L658.039 947.058L674.69 964.737L658.039 982.417L641.388 964.737Z" fill="#9C7ED4"/>
<path d="M649.489 1070.92L658.039 1061.84L666.59 1070.92L658.039 1080L649.489 1070.92Z" fill="#B08AF2"/>
<path d="M749.494 9.07887L758.045 -0.0317383L766.595 9.04701L758.045 18.1258L749.494 9.07887Z" fill="#7C53B8"/>
<path d="M741.394 115.263L758.044 97.5835L774.695 115.263L758.044 132.943L741.394 115.263Z" fill="#BE92FF"/>
<path d="M733.293 221.447L758.044 195.167L782.796 221.447L758.044 247.728L733.293 221.447Z" fill="#BD8DFF"/>
<path d="M725.193 327.632L758.045 292.75L790.856 327.632L758.005 362.513L725.193 327.632Z" fill="#804BB2"/>
<path d="M717.092 433.816L758.094 390.333L799.047 433.816L758.094 477.298L717.092 433.816Z" fill="#8C5CBC"/>
<path d="M713.042 540L758.044 492.217L803.047 540L758.044 587.783L713.042 540Z" fill="#B689E5"/>
<path d="M717.092 646.184L758.094 602.649L799.047 646.184L758.094 689.667L717.092 646.184Z" fill="#B095F8"/>
<path d="M725.193 752.369L758.045 717.487L790.856 752.369L758.005 787.25L725.193 752.369Z" fill="#CA9BFF"/>
<path d="M733.293 858.553L758.044 832.272L782.796 858.553L758.044 884.833L733.293 858.553Z" fill="#AE86E8"/>
<path d="M741.394 964.737L758.044 947.058L774.695 964.737L758.044 982.417L741.394 964.737Z" fill="#7854BC"/>
<path d="M749.494 1070.92L758.045 1061.84L766.595 1070.92L758.045 1080L749.494 1070.92Z" fill="#B180F2"/>
<path d="M849.499 9.07887L858.049 -0.0317383L866.6 9.04701L858.049 18.1258L849.499 9.07887Z" fill="#915FC8"/>
<path d="M841.399 115.263L858.05 97.5835L874.701 115.263L858.05 132.943L841.399 115.263Z" fill="#7D58BD"/>
<path d="M833.298 221.447L858.05 195.167L882.801 221.447L858.05 247.728L833.298 221.447Z" fill="#A378E0"/>
<path d="M825.198 327.632L858.05 292.75L890.862 327.632L858.01 362.513L825.198 327.632Z" fill="#9F86DC"/>
<path d="M817.098 433.816L858.1 390.333L899.052 433.816L858.1 477.298L817.098 433.816Z" fill="#804FC0"/>
<path d="M813.047 540L858.05 492.217L903.052 540L858.05 587.783L813.047 540Z" fill="#C09BFC"/>
<path d="M817.098 646.184L858.1 602.649L899.052 646.184L858.1 689.667L817.098 646.184Z" fill="#B37AEE"/>
<path d="M825.198 752.369L858.05 717.487L890.862 752.369L858.01 787.25L825.198 752.369Z" fill="#B88FFF"/>
<path d="M833.298 858.553L858.05 832.272L882.801 858.553L858.05 884.833L833.298 858.553Z" fill="#C0A1FA"/>
<path d="M841.399 964.737L858.05 947.058L874.701 964.737L858.05 982.417L841.399 964.737Z" fill="#AE76EC"/>
<path d="M849.499 1070.92L858.049 1061.84L866.6 1070.92L858.049 1080L849.499 1070.92Z" fill="#CAA1FF"/>
<path d="M949.505 9.07876L958.055 0L966.606 9.07876L958.055 18.1575L949.505 9.07876Z" fill="#B485E0"/>
<path d="M941.404 115.263L958.055 97.5835L974.706 115.263L958.055 132.943L941.404 115.263Z" fill="#BD8FF0"/>
<path d="M933.304 221.447L958.055 195.167L982.806 221.447L958.055 247.728L933.304 221.447Z" fill="#AC8FED"/>
<path d="M925.203 327.632L958.055 292.75L990.867 327.632L958.015 362.513L925.203 327.632Z" fill="#8E5FCA"/>
<path d="M917.103 433.816L958.105 390.333L999.107 433.816L958.105 477.298L917.103 433.816Z" fill="#9367D1"/>
<path d="M913.053 540L958.055 492.217L1003.06 540L958.055 587.783L913.053 540Z" fill="#A37DDF"/>
<path d="M917.103 646.184L958.105 602.649L999.107 646.184L958.105 689.667L917.103 646.184Z" fill="#A37CCF"/>
<path d="M925.203 752.369L958.055 717.487L990.867 752.369L958.015 787.25L925.203 752.369Z" fill="#C19BFF"/>
<path d="M933.304 858.553L958.055 832.272L982.806 858.553L958.055 884.833L933.304 858.553Z" fill="#AE91EC"/>
<path d="M941.404 964.737L958.055 947.058L974.706 964.737L958.055 982.417L941.404 964.737Z" fill="#7C57B5"/>
<path d="M949.505 1070.92L958.055 1061.84L966.606 1070.92L958.055 1080L949.505 1070.92Z" fill="#A881DF"/>
</g>
<mask id="mask1_1699_2261" style="mask-type:luminance" maskUnits="userSpaceOnUse" x="958" y="9" width="1001" height="1062">
<path d="M1958.11 9.07886H958.055V1070.92H1958.11V9.07886Z" fill="white"/>
</mask>
<g mask="url(#mask1_1699_2261)">
<path d="M1920.71 62.171L1908.11 48.813L1895.5 62.1922L1908.11 75.5714L1920.71 62.171Z" fill="#8E74D9"/>
<path d="M1928.81 168.355L1908.11 146.375L1887.39 168.355L1908.11 190.335L1928.81 168.355Z" fill="#8C66D2"/>
<path d="M1936.9 274.54L1908.11 243.958L1879.3 274.54L1908.11 305.121L1936.9 274.54Z" fill="#B289F3"/>
<path d="M1945.02 380.724L1908.12 341.542L1871.21 380.724L1908.12 419.906L1945.02 380.724Z" fill="#A57FDC"/>
<path d="M1953.11 486.908L1908.1 439.125L1863.1 486.908L1908.1 534.691L1953.11 486.908Z" fill="#A27CF1"/>
<path d="M1953.11 593.092L1908.1 545.309L1863.1 593.092L1908.1 640.875L1953.11 593.092Z" fill="#A582E6"/>
<path d="M1945.02 699.276L1908.12 660.094L1871.21 699.276L1908.12 738.458L1945.02 699.276Z" fill="#754FBF"/>
<path d="M1936.9 805.461L1908.11 774.88L1879.3 805.461L1908.11 836.042L1936.9 805.461Z" fill="#AB7ADC"/>
<path d="M1928.81 911.645L1908.11 889.665L1887.39 911.645L1908.11 933.625L1928.81 911.645Z" fill="#935FCF"/>
<path d="M1920.71 1017.83L1908.11 1004.45L1895.5 1017.83L1908.11 1031.21L1920.71 1017.83Z" fill="#925FC7"/>
<path d="M1820.7 62.171L1808.1 48.813L1795.5 62.1922L1808.1 75.5714L1820.7 62.171Z" fill="#BC9AFD"/>
<path d="M1828.8 168.355L1808.1 146.375L1787.39 168.355L1808.1 190.335L1828.8 168.355Z" fill="#916EDB"/>
<path d="M1836.89 274.54L1808.1 243.958L1779.3 274.54L1808.1 305.121L1836.89 274.54Z" fill="#B296F9"/>
<path d="M1845.01 380.724L1808.11 341.542L1771.21 380.724L1808.11 419.906L1845.01 380.724Z" fill="#9460D7"/>
<path d="M1853.1 486.908L1808.1 439.125L1763.1 486.908L1808.1 534.691L1853.1 486.908Z" fill="#AD7FE3"/>
<path d="M1853.1 593.092L1808.1 545.309L1763.1 593.092L1808.1 640.875L1853.1 593.092Z" fill="#C092FE"/>
<path d="M1845.01 699.276L1808.11 660.094L1771.21 699.276L1808.11 738.458L1845.01 699.276Z" fill="#AE82F2"/>
<path d="M1836.89 805.461L1808.1 774.88L1779.3 805.461L1808.1 836.042L1836.89 805.461Z" fill="#8256AD"/>
<path d="M1828.8 911.645L1808.1 889.665L1787.39 911.645L1808.1 933.625L1828.8 911.645Z" fill="#9F6CD9"/>
<path d="M1820.7 1017.83L1808.1 1004.45L1795.5 1017.83L1808.1 1031.21L1820.7 1017.83Z" fill="#B499FB"/>
<path d="M1720.69 62.171L1708.09 48.813L1695.49 62.1922L1708.09 75.5714L1720.69 62.171Z" fill="#9D78DF"/>
<path d="M1728.8 168.355L1708.09 146.375L1687.38 168.355L1708.09 190.335L1728.8 168.355Z" fill="#8763C1"/>
<path d="M1736.89 274.54L1708.09 243.958L1679.29 274.54L1708.09 305.121L1736.89 274.54Z" fill="#A679D7"/>
<path d="M1745.01 380.724L1708.1 341.542L1671.2 380.724L1708.1 419.906L1745.01 380.724Z" fill="#8959BE"/>
<path d="M1753.1 486.908L1708.09 439.125L1663.09 486.908L1708.09 534.691L1753.1 486.908Z" fill="#A176DE"/>
<path d="M1753.1 593.092L1708.09 545.309L1663.09 593.092L1708.09 640.875L1753.1 593.092Z" fill="#9058BB"/>
<path d="M1745.01 699.276L1708.1 660.094L1671.2 699.276L1708.1 738.458L1745.01 699.276Z" fill="#C999F5"/>
<path d="M1736.89 805.461L1708.09 774.88L1679.29 805.461L1708.09 836.042L1736.89 805.461Z" fill="#BC86EA"/>
<path d="M1728.8 911.645L1708.09 889.665L1687.38 911.645L1708.09 933.625L1728.8 911.645Z" fill="#986FDA"/>
<path d="M1720.69 1017.83L1708.09 1004.45L1695.49 1017.83L1708.09 1031.21L1720.69 1017.83Z" fill="#CA98FF"/>
<path d="M1620.68 62.171L1608.09 48.813L1595.49 62.1922L1608.09 75.5714L1620.68 62.171Z" fill="#7F5CCF"/>
<path d="M1628.79 168.355L1608.09 146.375L1587.38 168.355L1608.09 190.335L1628.79 168.355Z" fill="#8B6BCC"/>
<path d="M1636.88 274.54L1608.09 243.958L1579.29 274.54L1608.09 305.121L1636.88 274.54Z" fill="#8F73DC"/>
<path d="M1645 380.724L1608.1 341.542L1571.19 380.724L1608.1 419.906L1645 380.724Z" fill="#A58BEF"/>
<path d="M1653.09 486.908L1608.09 439.125L1563.09 486.908L1608.09 534.691L1653.09 486.908Z" fill="#8369C6"/>
<path d="M1653.09 593.092L1608.09 545.309L1563.09 593.092L1608.09 640.875L1653.09 593.092Z" fill="#B593F3"/>
<path d="M1645 699.276L1608.1 660.094L1571.19 699.276L1608.1 738.458L1645 699.276Z" fill="#8B60BC"/>
<path d="M1636.88 805.461L1608.09 774.88L1579.29 805.461L1608.09 836.042L1636.88 805.461Z" fill="#906FD2"/>
<path d="M1628.79 911.645L1608.09 889.665L1587.38 911.645L1608.09 933.625L1628.79 911.645Z" fill="#9A74D8"/>
<path d="M1620.68 1017.83L1608.09 1004.47L1595.49 1017.85L1608.09 1031.23L1620.68 1017.83Z" fill="#C397F8"/>
<path d="M1520.67 62.171L1508.08 48.813L1495.48 62.1922L1508.08 75.5714L1520.67 62.171Z" fill="#875DBF"/>
<path d="M1528.79 168.355L1508.08 146.375L1487.37 168.355L1508.08 190.335L1528.79 168.355Z" fill="#845EB6"/>
<path d="M1536.88 274.54L1508.08 243.958L1479.28 274.54L1508.08 305.121L1536.88 274.54Z" fill="#7E4EBB"/>
<path d="M1545 380.724L1508.09 341.542L1471.18 380.724L1508.09 419.906L1545 380.724Z" fill="#C492FB"/>
<path d="M1553.09 486.908L1508.08 439.125L1463.08 486.908L1508.08 534.691L1553.09 486.908Z" fill="#AC97F8"/>
<path d="M1553.09 593.092L1508.08 545.309L1463.08 593.092L1508.08 640.875L1553.09 593.092Z" fill="#7459B2"/>
<path d="M1545 699.276L1508.09 660.094L1471.18 699.276L1508.09 738.458L1545 699.276Z" fill="#8F6EC9"/>
<path d="M1536.88 805.461L1508.08 774.88L1479.28 805.461L1508.08 836.042L1536.88 805.461Z" fill="#C9A2FF"/>
<path d="M1528.79 911.645L1508.08 889.665L1487.37 911.645L1508.08 933.625L1528.79 911.645Z" fill="#946CD1"/>
<path d="M1520.67 1017.83L1508.08 1004.47L1495.48 1017.85L1508.08 1031.23L1520.67 1017.83Z" fill="#9A6AD3"/>
<path d="M1420.67 62.171L1408.08 48.813L1395.48 62.1922L1408.08 75.5714L1420.67 62.171Z" fill="#8A56BA"/>
<path d="M1428.78 168.355L1408.08 146.375L1387.37 168.355L1408.08 190.335L1428.78 168.355Z" fill="#A57FD4"/>
<path d="M1436.87 274.54L1408.08 243.958L1379.28 274.54L1408.08 305.121L1436.87 274.54Z" fill="#BB96E9"/>
<path d="M1444.99 380.724L1408.09 341.542L1371.18 380.724L1408.09 419.906L1444.99 380.724Z" fill="#C08FF0"/>
<path d="M1453.08 486.908L1408.08 439.125L1363.08 486.908L1408.08 534.691L1453.08 486.908Z" fill="#7F57C4"/>
<path d="M1453.08 593.092L1408.08 545.309L1363.08 593.092L1408.08 640.875L1453.08 593.092Z" fill="#835DB2"/>
<path d="M1444.99 699.276L1408.09 660.094L1371.18 699.276L1408.09 738.458L1444.99 699.276Z" fill="#7B4CC0"/>
<path d="M1436.87 805.461L1408.08 774.88L1379.28 805.461L1408.08 836.042L1436.87 805.461Z" fill="#D196FF"/>
<path d="M1428.78 911.645L1408.08 889.665L1387.37 911.645L1408.08 933.625L1428.78 911.645Z" fill="#8E6AD6"/>
<path d="M1420.67 1017.83L1408.08 1004.47L1395.48 1017.85L1408.08 1031.23L1420.67 1017.83Z" fill="#A67CE1"/>
<path d="M1320.66 62.171L1308.07 48.813L1295.47 62.1922L1308.07 75.5714L1320.66 62.171Z" fill="#C796FF"/>
<path d="M1328.77 168.355L1308.07 146.375L1287.36 168.355L1308.07 190.335L1328.77 168.355Z" fill="#A980E8"/>
<path d="M1336.86 274.54L1308.07 243.958L1279.27 274.54L1308.07 305.121L1336.86 274.54Z" fill="#C8A2FC"/>
<path d="M1344.99 380.724L1308.08 341.542L1271.17 380.724L1308.08 419.906L1344.99 380.724Z" fill="#C69DFB"/>
<path d="M1353.08 486.908L1308.07 439.125L1263.07 486.908L1308.07 534.691L1353.08 486.908Z" fill="#BF96FA"/>
<path d="M1353.08 593.092L1308.07 545.309L1263.07 593.092L1308.07 640.875L1353.08 593.092Z" fill="#BE8FF6"/>
<path d="M1344.99 699.276L1308.08 660.094L1271.17 699.276L1308.08 738.458L1344.99 699.276Z" fill="#865BCA"/>
<path d="M1336.86 805.461L1308.07 774.88L1279.27 805.461L1308.07 836.042L1336.86 805.461Z" fill="#C299FF"/>
<path d="M1328.77 911.645L1308.07 889.665L1287.36 911.645L1308.07 933.625L1328.77 911.645Z" fill="#9055CB"/>
<path d="M1320.66 1017.83L1308.07 1004.47L1295.47 1017.85L1308.07 1031.23L1320.66 1017.83Z" fill="#C89EF6"/>
<path d="M1220.66 62.171L1208.07 48.813L1195.47 62.1922L1208.07 75.5714L1220.66 62.171Z" fill="#A070D2"/>
<path d="M1228.77 168.355L1208.07 146.375L1187.36 168.355L1208.07 190.335L1228.77 168.355Z" fill="#8A6EC4"/>
<path d="M1236.86 274.54L1208.07 243.958L1179.27 274.54L1208.07 305.121L1236.86 274.54Z" fill="#956CCB"/>
<path d="M1244.98 380.724L1208.08 341.542L1171.17 380.724L1208.08 419.906L1244.98 380.724Z" fill="#C38BF2"/>
<path d="M1253.07 486.908L1208.07 439.125L1163.07 486.908L1208.07 534.691L1253.07 486.908Z" fill="#A98AE2"/>
<path d="M1253.07 593.092L1208.07 545.309L1163.07 593.092L1208.07 640.875L1253.07 593.092Z" fill="#7A5AC8"/>
<path d="M1244.98 699.276L1208.08 660.094L1171.17 699.276L1208.08 738.458L1244.98 699.276Z" fill="#875AC3"/>
<path d="M1236.86 805.461L1208.07 774.88L1179.27 805.461L1208.07 836.042L1236.86 805.461Z" fill="#A181DB"/>
<path d="M1228.77 911.645L1208.07 889.665L1187.36 911.645L1208.07 933.625L1228.77 911.645Z" fill="#8D6FCB"/>
<path d="M1220.66 1017.83L1208.07 1004.47L1195.47 1017.85L1208.07 1031.23L1220.66 1017.83Z" fill="#8158BE"/>
<path d="M1120.65 62.171L1108.06 48.813L1095.46 62.1922L1108.06 75.5714L1120.65 62.171Z" fill="#967BE0"/>
<path d="M1128.76 168.355L1108.06 146.375L1087.35 168.355L1108.06 190.335L1128.76 168.355Z" fill="#9C71E2"/>
<path d="M1136.85 274.54L1108.06 243.958L1079.26 274.54L1108.06 305.121L1136.85 274.54Z" fill="#8F64CB"/>
<path d="M1144.98 380.724L1108.07 341.542L1071.16 380.724L1108.07 419.906L1144.98 380.724Z" fill="#8058C0"/>
<path d="M1153.07 486.908L1108.06 439.125L1063.06 486.908L1108.06 534.691L1153.07 486.908Z" fill="#9176D3"/>
<path d="M1153.07 593.092L1108.06 545.309L1063.06 593.092L1108.06 640.875L1153.07 593.092Z" fill="#9373CE"/>
<path d="M1144.98 699.276L1108.07 660.094L1071.16 699.276L1108.07 738.458L1144.98 699.276Z" fill="#885BCC"/>
<path d="M1136.85 805.461L1108.06 774.88L1079.26 805.461L1108.06 836.042L1136.85 805.461Z" fill="#B690F4"/>
<path d="M1128.76 911.645L1108.06 889.665L1087.35 911.645L1108.06 933.625L1128.76 911.645Z" fill="#BF95FF"/>
<path d="M1120.65 1017.83L1108.06 1004.47L1095.46 1017.85L1108.06 1031.23L1120.65 1017.83Z" fill="#AA8DE6"/>
<path d="M1020.65 62.171L1008.06 48.813L995.457 62.1922L1008.06 75.5714L1020.65 62.171Z" fill="#824BBB"/>
<path d="M1028.76 168.355L1008.06 146.375L987.347 168.355L1008.06 190.335L1028.76 168.355Z" fill="#8F65D6"/>
<path d="M1036.85 274.54L1008.06 243.958L979.256 274.54L1008.06 305.121L1036.85 274.54Z" fill="#C2A7F9"/>
<path d="M1044.97 380.724L1008.07 341.542L971.156 380.724L1008.07 419.906L1044.97 380.724Z" fill="#855CB5"/>
<path d="M1053.06 486.908L1008.06 439.125L963.055 486.908L1008.06 534.691L1053.06 486.908Z" fill="#7A5CBC"/>
<path d="M1053.06 593.092L1008.06 545.309L963.055 593.092L1008.06 640.875L1053.06 593.092Z" fill="#9A73D9"/>
<path d="M1044.97 699.276L1008.07 660.094L971.156 699.276L1008.07 738.458L1044.97 699.276Z" fill="#A87DE5"/>
<path d="M1036.85 805.461L1008.06 774.88L979.256 805.461L1008.06 836.042L1036.85 805.461Z" fill="#844BBF"/>
<path d="M1028.76 911.645L1008.06 889.665L987.347 911.645L1008.06 933.625L1028.76 911.645Z" fill="#A472E9"/>
<path d="M1020.65 1017.83L1008.06 1004.47L995.457 1017.85L1008.06 1031.23L1020.65 1017.83Z" fill="#B893EF"/>
<path d="M1999.02 433.816L1958.02 390.333L1917.02 433.816L1958.02 477.298L1999.02 433.816Z" fill="#BFA2FF"/>
<path d="M2003.11 540L1958.11 492.217L1913.11 540L1958.11 587.783L2003.11 540Z" fill="#9C72DF"/>
<path d="M1999.02 646.184L1958.02 602.649L1917.02 646.184L1958.02 689.667L1999.02 646.184Z" fill="#A173EA"/>
<path d="M1866.64 9.07887L1858.1 -0.0317383L1849.55 9.04701L1858.1 18.1258L1866.64 9.07887Z" fill="#C1A0FD"/>
<path d="M1874.75 115.263L1858.1 97.5835L1841.45 115.263L1858.1 132.943L1874.75 115.263Z" fill="#C89BFF"/>
<path d="M1882.85 221.447L1858.1 195.167L1833.35 221.447L1858.1 247.728L1882.85 221.447Z" fill="#9C82DB"/>
<path d="M1890.95 327.632L1858.1 292.75L1825.25 327.632L1858.1 362.513L1890.95 327.632Z" fill="#C499F7"/>
<path d="M1899.01 433.816L1858.01 390.333L1817.01 433.816L1858.01 477.298L1899.01 433.816Z" fill="#9273CF"/>
<path d="M1903.1 540L1858.1 492.217L1813.1 540L1858.1 587.783L1903.1 540Z" fill="#9767D9"/>
<path d="M1899.01 646.184L1858.01 602.649L1817.01 646.184L1858.01 689.667L1899.01 646.184Z" fill="#B39AF9"/>
<path d="M1890.95 752.369L1858.1 717.487L1825.25 752.369L1858.1 787.25L1890.95 752.369Z" fill="#AC84EE"/>
<path d="M1882.85 858.553L1858.1 832.272L1833.35 858.553L1858.1 884.833L1882.85 858.553Z" fill="#967BCF"/>
<path d="M1874.75 964.737L1858.1 947.058L1841.45 964.737L1858.1 982.417L1874.75 964.737Z" fill="#9466D3"/>
<path d="M1866.64 1070.92L1858.1 1061.84L1849.55 1070.92L1858.1 1080L1866.64 1070.92Z" fill="#8263C7"/>
<path d="M1766.64 9.07887L1758.1 -0.0317383L1749.55 9.04701L1758.1 18.1258L1766.64 9.07887Z" fill="#7C65BB"/>
<path d="M1774.75 115.263L1758.1 97.5835L1741.45 115.263L1758.1 132.943L1774.75 115.263Z" fill="#C5A7FF"/>
<path d="M1782.85 221.447L1758.1 195.167L1733.35 221.447L1758.1 247.728L1782.85 221.447Z" fill="#8865CF"/>
<path d="M1790.95 327.632L1758.1 292.75L1725.25 327.632L1758.1 362.513L1790.95 327.632Z" fill="#9B7BD0"/>
<path d="M1799.01 433.816L1758.01 390.333L1717 433.816L1758.01 477.298L1799.01 433.816Z" fill="#AA8AE6"/>
<path d="M1803.1 540L1758.1 492.217L1713.09 540L1758.1 587.783L1803.1 540Z" fill="#A68CEF"/>
<path d="M1799.01 646.184L1758.01 602.649L1717 646.184L1758.01 689.667L1799.01 646.184Z" fill="#AA88EA"/>
<path d="M1790.95 752.369L1758.1 717.487L1725.25 752.369L1758.1 787.25L1790.95 752.369Z" fill="#844BAD"/>
<path d="M1782.85 858.553L1758.1 832.272L1733.35 858.553L1758.1 884.833L1782.85 858.553Z" fill="#8C5FBD"/>
<path d="M1774.75 964.737L1758.1 947.058L1741.45 964.737L1758.1 982.417L1774.75 964.737Z" fill="#AD81EB"/>
<path d="M1766.64 1070.92L1758.1 1061.84L1749.55 1070.92L1758.1 1080L1766.64 1070.92Z" fill="#875FC1"/>
<path d="M1666.63 9.07887L1658.09 -0.0317383L1649.54 9.04701L1658.09 18.1258L1666.63 9.07887Z" fill="#B988E8"/>
<path d="M1674.74 115.263L1658.09 97.5835L1641.43 115.263L1658.09 132.943L1674.74 115.263Z" fill="#9A5FC9"/>
<path d="M1682.84 221.447L1658.09 195.167L1633.34 221.447L1658.09 247.728L1682.84 221.447Z" fill="#9C7FDF"/>
<path d="M1690.94 327.632L1658.09 292.75L1625.24 327.632L1658.09 362.513L1690.94 327.632Z" fill="#CA98FA"/>
<path d="M1699 433.816L1658 390.333L1617 433.816L1658 477.298L1699 433.816Z" fill="#C19AFF"/>
<path d="M1703.09 540L1658.09 492.217L1613.09 540L1658.09 587.783L1703.09 540Z" fill="#B296F8"/>
<path d="M1699 646.184L1658 602.649L1617 646.184L1658 689.667L1699 646.184Z" fill="#9663D3"/>
<path d="M1690.94 752.369L1658.09 717.487L1625.24 752.369L1658.09 787.25L1690.94 752.369Z" fill="#B289F8"/>
<path d="M1682.84 858.553L1658.09 832.272L1633.34 858.553L1658.09 884.833L1682.84 858.553Z" fill="#916FD7"/>
<path d="M1674.74 964.737L1658.09 947.058L1641.43 964.737L1658.09 982.417L1674.74 964.737Z" fill="#8865CE"/>
<path d="M1666.63 1070.92L1658.09 1061.84L1649.54 1070.92L1658.09 1080L1666.63 1070.92Z" fill="#AF8BEB"/>
<path d="M1566.63 9.07887L1558.09 -0.0317383L1549.54 9.04701L1558.09 18.1258L1566.63 9.07887Z" fill="#B192EA"/>
<path d="M1574.74 115.263L1558.09 97.5835L1541.43 115.263L1558.09 132.943L1574.74 115.263Z" fill="#9B71D2"/>
<path d="M1582.84 221.447L1558.09 195.167L1533.34 221.447L1558.09 247.728L1582.84 221.447Z" fill="#B08EEF"/>
<path d="M1590.93 327.632L1558.09 292.75L1525.23 327.632L1558.09 362.513L1590.93 327.632Z" fill="#B883F2"/>
<path d="M1599 433.816L1558 390.333L1516.99 433.816L1558 477.298L1599 433.816Z" fill="#B891FA"/>
<path d="M1603.09 540L1558.09 492.217L1513.08 540L1558.09 587.783L1603.09 540Z" fill="#8250BE"/>
<path d="M1599 646.184L1558 602.649L1516.99 646.184L1558 689.667L1599 646.184Z" fill="#9C6FDC"/>
<path d="M1590.93 752.369L1558.09 717.487L1525.23 752.369L1558.09 787.25L1590.93 752.369Z" fill="#C595F8"/>
<path d="M1582.84 858.553L1558.09 832.272L1533.34 858.553L1558.09 884.833L1582.84 858.553Z" fill="#BF97FF"/>
<path d="M1574.74 964.737L1558.09 947.058L1541.43 964.737L1558.09 982.417L1574.74 964.737Z" fill="#A87BDF"/>
<path d="M1566.63 1070.92L1558.09 1061.84L1549.54 1070.92L1558.09 1080L1566.63 1070.92Z" fill="#A67CEC"/>
<path d="M1466.62 9.07887L1458.08 -0.0317383L1449.53 9.04701L1458.08 18.1258L1466.62 9.07887Z" fill="#9477DE"/>
<path d="M1474.73 115.263L1458.08 97.5835L1441.42 115.263L1458.08 132.943L1474.73 115.263Z" fill="#7F5EC1"/>
<path d="M1482.83 221.447L1458.08 195.167L1433.33 221.447L1458.08 247.728L1482.83 221.447Z" fill="#AD8CE8"/>
<path d="M1490.92 327.632L1458.08 292.75L1425.23 327.632L1458.08 362.513L1490.92 327.632Z" fill="#A678DB"/>
<path d="M1498.99 433.816L1457.99 390.333L1416.99 433.816L1457.99 477.298L1498.99 433.816Z" fill="#C699FF"/>
<path d="M1503.08 540L1458.08 492.217L1413.08 540L1458.08 587.783L1503.08 540Z" fill="#8D69D0"/>
<path d="M1498.99 646.184L1457.99 602.649L1416.99 646.184L1457.99 689.667L1498.99 646.184Z" fill="#BBA2FC"/>
<path d="M1490.92 752.369L1458.08 717.487L1425.23 752.369L1458.08 787.25L1490.92 752.369Z" fill="#9172C3"/>
<path d="M1482.83 858.553L1458.08 832.272L1433.33 858.553L1458.08 884.833L1482.83 858.553Z" fill="#9F77CF"/>
<path d="M1474.73 964.737L1458.08 947.058L1441.42 964.737L1458.08 982.417L1474.73 964.737Z" fill="#8D5FD1"/>
<path d="M1466.62 1070.92L1458.08 1061.84L1449.53 1070.92L1458.08 1080L1466.62 1070.92Z" fill="#C1A6FF"/>
<path d="M1366.62 9.07887L1358.08 -0.0317383L1349.53 9.04701L1358.08 18.1258L1366.62 9.07887Z" fill="#8D67C5"/>
<path d="M1374.73 115.263L1358.08 97.5835L1341.42 115.263L1358.08 132.943L1374.73 115.263Z" fill="#9880DF"/>
<path d="M1382.83 221.447L1358.08 195.167L1333.32 221.447L1358.08 247.728L1382.83 221.447Z" fill="#8B65CE"/>
<path d="M1390.92 327.632L1358.08 292.75L1325.22 327.632L1358.08 362.513L1390.92 327.632Z" fill="#8168C0"/>
<path d="M1398.99 433.816L1357.99 390.333L1316.98 433.816L1357.99 477.298L1398.99 433.816Z" fill="#A67BE7"/>
<path d="M1403.08 540L1358.08 492.217L1313.07 540L1358.08 587.783L1403.08 540Z" fill="#976AD5"/>
<path d="M1398.99 646.184L1357.99 602.649L1316.98 646.184L1357.99 689.667L1398.99 646.184Z" fill="#8F58C5"/>
<path d="M1390.92 752.369L1358.08 717.487L1325.22 752.369L1358.08 787.25L1390.92 752.369Z" fill="#A285E3"/>
<path d="M1382.83 858.553L1358.08 832.272L1333.32 858.553L1358.08 884.833L1382.83 858.553Z" fill="#9D72D2"/>
<path d="M1374.73 964.737L1358.08 947.058L1341.42 964.737L1358.08 982.417L1374.73 964.737Z" fill="#9C6AD6"/>
<path d="M1366.62 1070.92L1358.08 1061.84L1349.53 1070.92L1358.08 1080L1366.62 1070.92Z" fill="#7B4AAC"/>
<path d="M1266.61 9.07887L1258.07 -0.0317383L1249.52 9.04701L1258.07 18.1258L1266.61 9.07887Z" fill="#9667C6"/>
<path d="M1274.72 115.263L1258.07 97.5835L1241.41 115.263L1258.07 132.943L1274.72 115.263Z" fill="#CDA9FF"/>
<path d="M1282.82 221.447L1258.07 195.167L1233.32 221.447L1258.07 247.728L1282.82 221.447Z" fill="#B19AFD"/>
<path d="M1290.91 327.632L1258.07 292.75L1225.22 327.632L1258.07 362.513L1290.91 327.632Z" fill="#A47DE6"/>
<path d="M1298.98 433.816L1257.98 390.333L1216.98 433.816L1257.98 477.298L1298.98 433.816Z" fill="#895ED0"/>
<path d="M1303.07 540L1258.07 492.217L1213.07 540L1258.07 587.783L1303.07 540Z" fill="#A780E6"/>
<path d="M1298.98 646.184L1257.98 602.649L1216.98 646.184L1257.98 689.667L1298.98 646.184Z" fill="#8E67CF"/>
<path d="M1290.91 752.369L1258.07 717.487L1225.22 752.369L1258.07 787.25L1290.91 752.369Z" fill="#7C4FB5"/>
<path d="M1282.82 858.553L1258.07 832.272L1233.32 858.553L1258.07 884.833L1282.82 858.553Z" fill="#B59BF5"/>
<path d="M1274.72 964.737L1258.07 947.058L1241.41 964.737L1258.07 982.417L1274.72 964.737Z" fill="#9C7ED4"/>
<path d="M1266.61 1070.92L1258.07 1061.84L1249.52 1070.92L1258.07 1080L1266.61 1070.92Z" fill="#B08AF2"/>
<path d="M1166.61 9.07887L1158.07 -0.0317383L1149.52 9.04701L1158.07 18.1258L1166.61 9.07887Z" fill="#7C53B8"/>
<path d="M1174.72 115.263L1158.07 97.5835L1141.4 115.263L1158.07 132.943L1174.72 115.263Z" fill="#BE92FF"/>
<path d="M1182.82 221.447L1158.07 195.167L1133.31 221.447L1158.07 247.728L1182.82 221.447Z" fill="#BD8DFF"/>
<path d="M1190.91 327.632L1158.07 292.75L1125.21 327.632L1158.07 362.513L1190.91 327.632Z" fill="#804BB2"/>
<path d="M1198.98 433.816L1157.98 390.333L1116.97 433.816L1157.98 477.298L1198.98 433.816Z" fill="#8C5CBC"/>
<path d="M1203.07 540L1158.07 492.217L1113.06 540L1158.07 587.783L1203.07 540Z" fill="#B689E5"/>
<path d="M1198.98 646.184L1157.98 602.649L1116.97 646.184L1157.98 689.667L1198.98 646.184Z" fill="#B095F8"/>
<path d="M1190.91 752.369L1158.07 717.487L1125.21 752.369L1158.07 787.25L1190.91 752.369Z" fill="#CA9BFF"/>
<path d="M1182.82 858.553L1158.07 832.272L1133.31 858.553L1158.07 884.833L1182.82 858.553Z" fill="#AE86E8"/>
<path d="M1174.72 964.737L1158.07 947.058L1141.4 964.737L1158.07 982.417L1174.72 964.737Z" fill="#7854BC"/>
<path d="M1166.61 1070.92L1158.07 1061.84L1149.52 1070.92L1158.07 1080L1166.61 1070.92Z" fill="#B180F2"/>
<path d="M1066.6 9.07887L1058.06 -0.0317383L1049.51 9.04701L1058.06 18.1258L1066.6 9.07887Z" fill="#915FC8"/>
<path d="M1074.71 115.263L1058.06 97.5835L1041.4 115.263L1058.06 132.943L1074.71 115.263Z" fill="#7D58BD"/>
<path d="M1082.81 221.447L1058.06 195.167L1033.31 221.447L1058.06 247.728L1082.81 221.447Z" fill="#A378E0"/>
<path d="M1090.9 327.632L1058.06 292.75L1025.21 327.632L1058.06 362.513L1090.9 327.632Z" fill="#9F86DC"/>
<path d="M1098.97 433.816L1057.97 390.333L1016.97 433.816L1057.97 477.298L1098.97 433.816Z" fill="#804FC0"/>
<path d="M1103.06 540L1058.06 492.217L1013.06 540L1058.06 587.783L1103.06 540Z" fill="#C09BFC"/>
<path d="M1098.97 646.184L1057.97 602.649L1016.97 646.184L1057.97 689.667L1098.97 646.184Z" fill="#B37AEE"/>
<path d="M1090.9 752.369L1058.06 717.487L1025.21 752.369L1058.06 787.25L1090.9 752.369Z" fill="#B88FFF"/>
<path d="M1082.81 858.553L1058.06 832.272L1033.31 858.553L1058.06 884.833L1082.81 858.553Z" fill="#C0A1FA"/>
<path d="M1074.71 964.737L1058.06 947.058L1041.4 964.737L1058.06 982.417L1074.71 964.737Z" fill="#AE76EC"/>
<path d="M1066.6 1070.92L1058.06 1061.84L1049.51 1070.92L1058.06 1080L1066.6 1070.92Z" fill="#CAA1FF"/>
<path d="M966.595 9.07887L958.055 -0.0317383L949.504 9.04701L958.055 18.1258L966.595 9.07887Z" fill="#B485E0"/>
<path d="M974.706 115.263L958.055 97.5835L941.394 115.263L958.055 132.943L974.706 115.263Z" fill="#BD8FF0"/>
<path d="M982.806 221.447L958.055 195.167L933.304 221.447L958.055 247.728L982.806 221.447Z" fill="#AC8FED"/>
<path d="M990.897 327.632L958.055 292.75L925.203 327.632L958.055 362.513L990.897 327.632Z" fill="#8E5FCA"/>
<path d="M998.967 433.816L958.015 390.333L917.013 433.816L958.015 477.298L998.967 433.816Z" fill="#9367D1"/>
<path d="M1003.06 540L958.055 492.217L913.053 540L958.055 587.783L1003.06 540Z" fill="#A37DDF"/>
<path d="M998.967 646.184L958.015 602.649L917.013 646.184L958.015 689.667L998.967 646.184Z" fill="#A37CCF"/>
<path d="M990.897 752.369L958.055 717.487L925.203 752.369L958.055 787.25L990.897 752.369Z" fill="#C19BFF"/>
<path d="M982.806 858.553L958.055 832.272L933.304 858.553L958.055 884.833L982.806 858.553Z" fill="#AE91EC"/>
<path d="M974.706 964.737L958.055 947.058L941.394 964.737L958.055 982.417L974.706 964.737Z" fill="#7C57B5"/>
<path d="M966.595 1070.92L958.055 1061.84L949.504 1070.92L958.055 1080L966.595 1070.92Z" fill="#A881DF"/>
</g>
</g>
<defs>
<clipPath id="clip0_1699_2261">
<rect width="1920" height="1080" fill="white"/>
</clipPath>
</defs>
</svg>
